<svg width="220" height="60" viewBox="0 0 220 60" fill="none" xmlns="http://www.w3.org/2000/svg">
<rect width="220" height="60" fill="black" fill-opacity="0"/>
<rect x="2" y="2" width="216" height="56" rx="28" stroke="url(#paint0_linear)" stroke-width="4"/>
<path d="M60.884 36.198C59.54 36.198 58.388 35.904 57.428 35.316C56.468 34.728 55.742 33.924 55.25 32.904C54.758 31.884 54.512 30.726 54.512 29.43C54.512 27.942 54.794 26.676 55.358 25.632C55.922 24.588 56.726 23.802 57.77 23.274C58.826 22.734 60.074 22.464 61.514 22.464C62.342 22.464 63.164 22.524 63.98 22.644C64.796 22.764 65.486 22.89 66.05 23.022L65.834 26.496H63.674L63.17 24.12C63.062 24 62.864 23.898 62.576 23.814C62.3 23.718 61.922 23.67 61.442 23.67C60.374 23.67 59.546 24.144 58.958 25.092C58.37 26.028 58.076 27.39 58.076 29.178C58.076 30.954 58.322 32.364 58.814 33.408C59.318 34.44 60.098 34.956 61.154 34.956C61.586 34.956 61.976 34.902 62.324 34.794C62.684 34.674 62.954 34.524 63.134 34.344V30.582L61.46 30.402V29.088H67.076V30.402L66.176 30.546V35.28C65.972 35.292 65.498 35.388 64.754 35.568C64.022 35.76 63.362 35.91 62.774 36.018C62.186 36.138 61.556 36.198 60.884 36.198ZM71.7752 24.138L70.2992 23.886V22.626H76.3652V23.886L74.8532 24.138V34.632L76.3652 34.83V36H70.3172V34.812L71.7752 34.614V24.138ZM78.9031 22.626H84.7891V23.886L83.3131 24.12L85.8151 31.95L86.2651 33.534L86.6251 31.932L89.0191 24.138L87.6151 23.886V22.626H92.1871V23.886L91.0171 24.138L86.9491 36.126H84.4471L79.9651 24.138L78.9031 23.886V22.626ZM95.9539 24.138L94.5499 23.886V22.626H104.396L104.63 25.812H103.208L102.578 23.994L99.0319 23.814V28.494L101.228 28.44L101.552 26.964H102.794V31.482H101.552L101.246 29.916L99.0319 29.862V34.758L102.974 34.506L104.072 32.184L105.602 32.616L105.17 36H94.5679V34.812L95.9539 34.632V24.138ZM116.411 24.12L115.007 23.886V22.626H119.525L124.493 30.294L125.501 32.454V24.12L123.971 23.886V22.626H128.579V23.886L127.211 24.12V36H124.565L119.291 27.774L118.103 25.398V34.614L120.011 34.812V36H115.007V34.812L116.411 34.614V24.12ZM137.448 36.198C135.432 36.198 133.938 35.592 132.966 34.38C131.994 33.156 131.508 31.476 131.508 29.34C131.508 27.96 131.76 26.754 132.264 25.722C132.78 24.678 133.5 23.874 134.424 23.31C135.348 22.746 136.428 22.464 137.664 22.464C139.728 22.464 141.246 23.04 142.218 24.192C143.202 25.332 143.694 26.964 143.694 29.088C143.694 30.492 143.436 31.734 142.92 32.814C142.404 33.882 141.672 34.716 140.724 35.316C139.788 35.904 138.696 36.198 137.448 36.198ZM137.61 23.652C136.746 23.652 136.074 24.126 135.594 25.074C135.126 26.022 134.892 27.438 134.892 29.322C134.892 31.242 135.126 32.67 135.594 33.606C136.062 34.53 136.728 34.992 137.592 34.992C138.444 34.992 139.104 34.488 139.572 33.48C140.052 32.46 140.292 31.002 140.292 29.106C140.292 27.186 140.064 25.8 139.608 24.948C139.152 24.084 138.486 23.652 137.61 23.652ZM146.024 22.626H151.766V23.886L150.272 24.138L152.414 32.076L152.756 33.75L153.062 32.076L154.898 25.668L154.376 24.138L153.242 23.886V22.626H159.254V23.886L157.544 24.138L159.686 32.076L160.082 33.894L160.388 32.076L162.314 24.138L160.784 23.886V22.626H165.158V23.886L164.042 24.138L160.712 36.09H157.958L155.636 28.08L153.44 36.09H150.722L147.068 24.138L146.024 23.886V22.626Z" fill="#86A8E7"/>
<defs>
<linearGradient id="paint0_linear" x1="220" y1="42.5454" x2="-0.56155" y2="16.8133" gradientUnits="userSpaceOnUse">
<stop stop-color="#7F7FD5"/>
<stop offset="0.502762" stop-color="#86A8E7"/>
<stop offset="0.994475" stop-color="#91EAE4"/>
</linearGradient>
</defs>
</svg>
